HIERARCHY
ROOT Hips
{
	OFFSET -14.64140 90.27770 -84.91600
	CHANNELS 6 Xposition Yposition Zposition Zrotation Xrotation Yrotation
	JOINT Spine
	{
		OFFSET 0.00000 13.20850 -1.60436
		CHANNELS 3 Zrotation Xrotation Yrotation
		JOINT Spine1
		{
			OFFSET 0.00000 8.61716 0.00000
			CHANNELS 3 Zrotation Xrotation Yrotation
			JOINT Spine2
			{
				OFFSET 0.00000 8.61717 0.00000
				CHANNELS 3 Zrotation Xrotation Yrotation
				JOINT Spine3
				{
					OFFSET 0.00000 8.61717 0.00000
					CHANNELS 3 Zrotation Xrotation Yrotation
					JOINT Neck
					{
						OFFSET 0.00000 11.07920 1.10792
						CHANNELS 3 Zrotation Xrotation Yrotation
						JOINT Neck1
						{
							OFFSET 0.00000 7.08032 0.00000
							CHANNELS 3 Zrotation Xrotation Yrotation
							JOINT Head
							{
								OFFSET 0.00000 7.08031 0.00000
								CHANNELS 3 Zrotation Xrotation Yrotation
								End site
								{
									OFFSET 0.00000 0.00000 0.00000
								}
							}
						}
					}
					JOINT RightShoulder
					{
						OFFSET -0.01000 7.91373 5.19711
						CHANNELS 3 Zrotation Xrotation Yrotation
						JOINT RightArm
						{
							OFFSET -18.41580 0.00000 0.00000
							CHANNELS 3 Zrotation Xrotation Yrotation
							JOINT RightForeArm
							{
								OFFSET -29.11090 0.00000 0.00000
								CHANNELS 3 Zrotation Xrotation Yrotation
								JOINT RightHand
								{
									OFFSET -24.65040 0.00000 0.00000
									CHANNELS 3 Zrotation Xrotation Yrotation
									JOINT RightHandThumb1
									{
										OFFSET -5.35114 -0.85590 3.97906
										CHANNELS 3 Zrotation Xrotation Yrotation
										JOINT RightHandThumb2
										{
											OFFSET -4.52789 0.00000 0.00000
											CHANNELS 3 Zrotation Xrotation Yrotation
											JOINT RightHandThumb3
											{
												OFFSET -2.46976 0.00000 0.00000
												CHANNELS 3 Zrotation Xrotation Yrotation
												End site
												{
													OFFSET 0.00000 0.00000 0.00000
												}
											}
										}
									}
									JOINT RightHandIndex1
									{
										OFFSET -14.26970 0.00000 2.88139
										CHANNELS 3 Zrotation Xrotation Yrotation
										JOINT RightHandIndex2
										{
											OFFSET -5.48836 0.00000 0.00000
											CHANNELS 3 Zrotation Xrotation Yrotation
											JOINT RightHandIndex3
											{
												OFFSET -3.01859 0.00000 0.00000
												CHANNELS 3 Zrotation Xrotation Yrotation
												End site
												{
													OFFSET 0.00000 0.00000 0.00000
												}
											}
										}
									}
									JOINT RightHandMiddle1
									{
										OFFSET -14.26970 0.00000 -0.09147
										CHANNELS 3 Zrotation Xrotation Yrotation
										JOINT RightHandMiddle2
										{
											OFFSET -6.17441 0.00000 0.00000
											CHANNELS 3 Zrotation Xrotation Yrotation
											JOINT RightHandMiddle3
											{
												OFFSET -3.56743 0.00000 0.00000
												CHANNELS 3 Zrotation Xrotation Yrotation
												End site
												{
													OFFSET 0.00000 0.00000 0.00000
												}
											}
										}
									}
									JOINT RightHandRing1
									{
										OFFSET -12.69180 0.00000 -3.06433
										CHANNELS 3 Zrotation Xrotation Yrotation
										JOINT RightHandRing2
										{
											OFFSET -5.62556 0.00000 0.00000
											CHANNELS 3 Zrotation Xrotation Yrotation
											JOINT RightHandRing3
											{
												OFFSET -3.56744 0.00000 0.00000
												CHANNELS 3 Zrotation Xrotation Yrotation
												End site
												{
													OFFSET 0.00000 0.00000 0.00000
												}
											}
										}
									}
									JOINT RightHandPinky1
									{
										OFFSET -11.11390 0.00000 -6.03719
										CHANNELS 3 Zrotation Xrotation Yrotation
										JOINT RightHandPinky2
										{
											OFFSET -4.52789 0.00000 0.00000
											CHANNELS 3 Zrotation Xrotation Yrotation
											JOINT RightHandPinky3
											{
												OFFSET -2.46976 0.00000 0.00000
												CHANNELS 3 Zrotation Xrotation Yrotation
												End site
												{
													OFFSET 0.00000 0.00000 0.00000
												}
											}
										}
									}
								}
							}
						}
					}
					JOINT LeftShoulder
					{
						OFFSET 0.01000 7.91373 5.19711
						CHANNELS 3 Zrotation Xrotation Yrotation
						JOINT LeftArm
						{
							OFFSET 18.41580 0.00000 0.00000
							CHANNELS 3 Zrotation Xrotation Yrotation
							JOINT LeftForeArm
							{
								OFFSET 29.11090 0.00000 0.00000
								CHANNELS 3 Zrotation Xrotation Yrotation
								JOINT LeftHand
								{
									OFFSET 24.65040 0.00000 0.00000
									CHANNELS 3 Zrotation Xrotation Yrotation
									JOINT LeftHandThumb1
									{
										OFFSET 5.35114 -0.85590 3.97906
										CHANNELS 3 Zrotation Xrotation Yrotation
										JOINT LeftHandThumb2
										{
											OFFSET 4.52789 0.00000 0.00000
											CHANNELS 3 Zrotation Xrotation Yrotation
											JOINT LeftHandThumb3
											{
												OFFSET 2.46977 0.00000 0.00000
												CHANNELS 3 Zrotation Xrotation Yrotation
												End site
												{
													OFFSET 0.00000 0.00000 0.00000
												}
											}
										}
									}
									JOINT LeftHandIndex1
									{
										OFFSET 14.26970 0.00000 2.88139
										CHANNELS 3 Zrotation Xrotation Yrotation
										JOINT LeftHandIndex2
										{
											OFFSET 5.48836 0.00000 0.00000
											CHANNELS 3 Zrotation Xrotation Yrotation
											JOINT LeftHandIndex3
											{
												OFFSET 3.01859 0.00000 0.00000
												CHANNELS 3 Zrotation Xrotation Yrotation
												End site
												{
													OFFSET 0.00000 0.00000 0.00000
												}
											}
										}
									}
									JOINT LeftHandMiddle1
									{
										OFFSET 14.26970 0.00000 -0.09147
										CHANNELS 3 Zrotation Xrotation Yrotation
										JOINT LeftHandMiddle2
										{
											OFFSET 6.17440 0.00000 0.00000
											CHANNELS 3 Zrotation Xrotation Yrotation
											JOINT LeftHandMiddle3
											{
												OFFSET 3.56744 0.00000 0.00000
												CHANNELS 3 Zrotation Xrotation Yrotation
												End site
												{
													OFFSET 0.00000 0.00000 0.00000
												}
											}
										}
									}
									JOINT LeftHandRing1
									{
										OFFSET 12.69180 0.00000 -3.06433
										CHANNELS 3 Zrotation Xrotation Yrotation
										JOINT LeftHandRing2
										{
											OFFSET 5.62556 0.00000 0.00000
											CHANNELS 3 Zrotation Xrotation Yrotation
											JOINT LeftHandRing3
											{
												OFFSET 3.56744 0.00000 0.00000
												CHANNELS 3 Zrotation Xrotation Yrotation
												End site
												{
													OFFSET 0.00000 0.00000 0.00000
												}
											}
										}
									}
									JOINT LeftHandPinky1
									{
										OFFSET 11.11390 0.00000 -6.03719
										CHANNELS 3 Zrotation Xrotation Yrotation
										JOINT LeftHandPinky2
										{
											OFFSET 4.52789 0.00000 0.00000
											CHANNELS 3 Zrotation Xrotation Yrotation
											JOINT LeftHandPinky3
											{
												OFFSET 2.46976 0.00000 0.00000
												CHANNELS 3 Zrotation Xrotation Yrotation
												End site
												{
													OFFSET 0.00000 0.00000 0.00000
												}
											}
										}
									}
								}
							}
						}
					}
					JOINT pCube4
					{
						OFFSET 0.00000 10.91090 1.10792
						CHANNELS 3 Zrotation Xrotation Yrotation
						End site
						{
							OFFSET 0.00000 0.00000 0.00000
						}
					}
				}
			}
		}
	}
	JOINT RightUpLeg
	{
		OFFSET -9.98441 0.00000 0.00000
		CHANNELS 3 Zrotation Xrotation Yrotation
		JOINT RightLeg
		{
			OFFSET 0.00000 -42.11790 0.00000
			CHANNELS 3 Zrotation Xrotation Yrotation
			JOINT RightFoot
			{
				OFFSET 0.00000 -45.00020 -0.00001
				CHANNELS 3 Zrotation Xrotation Yrotation
				JOINT RightForeFoot
				{
					OFFSET 0.00000 -3.74820 0.00000
					CHANNELS 3 Zrotation Xrotation Yrotation
					JOINT RightToeBase
					{
						OFFSET 0.00000 0.06325 14.43120
						CHANNELS 3 Zrotation Xrotation Yrotation
						End site
						{
							OFFSET 0.00000 0.00000 0.00000
						}
					}
				}
			}
		}
	}
	JOINT LeftUpLeg
	{
		OFFSET 9.98441 0.00000 0.00000
		CHANNELS 3 Zrotation Xrotation Yrotation
		JOINT LeftLeg
		{
			OFFSET 0.00000 -42.11800 0.00000
			CHANNELS 3 Zrotation Xrotation Yrotation
			JOINT LeftFoot
			{
				OFFSET 0.00000 -45.00070 0.00000
				CHANNELS 3 Zrotation Xrotation Yrotation
				JOINT LeftForeFoot
				{
					OFFSET 0.00000 -3.74824 0.00000
					CHANNELS 3 Zrotation Xrotation Yrotation
					JOINT LeftToeBase
					{
						OFFSET 0.00000 0.06325 14.43110
						CHANNELS 3 Zrotation Xrotation Yrotation
						End site
						{
							OFFSET 0.00000 0.00000 0.00000
						}
					}
				}
			}
		}
	}
}
MOTION
Frames: 4
Frame Time: 0.050000
-0.033329408560693136 -0.007750151500371078 0.015387382977372136 0.04665197372529368 -0.04449448258285044 -0.01018810334170629 5.433882957059272 3.5223053541215488 -2.1778798897339877 -0.7666903473556383 3.585536329191696 0.34173789387308545 -0.5597192844239787 -1.0819191453757548 0.9485275351795222 -0.4858953881668996 -0.2420083152813935 -0.27525711194290287 -0.12087312126284867 12.640963622980886 -1.1645833502581457 0.3661459327874185 -0.8130482936963387 -2.213385051631855 0.9192923414569255 -17.51120462729417 -0.2552367098521996 -9.946377745169322 3.4772601740746807 -17.938834643334687 83.84801337201847 8.66458923754336 2.1171035555042534 -4.2777172802091386 7.3379887779392865 44.24749442653601 17.63947094233923 -0.2520839009000546 -2.673775751261161 4.540186192884542 -0.15395709600040577 -1.5660393096675425 0.008631720747132789 0.009001764264513316 -56.24157539062367 0.020463582050004286 0.00943916422104149 -56.26796444337372 -38.79459237601073 -0.03554749274744858 0.02758412908523294 -0.030148406620610295 0.016393298843073813 -0.036413696947226834 -0.002029791964350234 0.04548136993966427 0.028407595587191622 -36.68280353579926 0.033719073449246004 -0.021389515435976898 -0.01608212267841578 -0.0057736580079859705 -0.03907029798590538 -0.03606446670208353 0.012693753223749429 -0.01625165573021062 -19.779841823388317 0.010659691803944885 -0.012233719220650202 -0.025819318582476325 0.048179343270446755 -0.03494833770034877 0.0388415345425547 -0.03439924760540708 -0.02012158306969898 24.039350226338023 -0.008667649822926332 -0.002178080892339356 28.81759701183005 0.038511076083821066 0.03295050800892858 28.86429157147352 0.04755019124627736 -0.016405444455342574 10.117360312981688 2.453988974131626 15.194577825842144 -78.45429374633393 17.674171505595314 -12.676884690323401 2.211655437700753 7.181683225553389 -45.80221618723802 -18.929428000304647 -0.7993343971524243 0.8863607181283487 -0.51484587719444 0.032296162032435016 -8.154771505906856 -0.0265927996041466 0.0066372966339956155 44.605333935564666 -0.01678380810728493 -0.010807938425594259 44.61636135898126 12.44782605534567 0.0481586135285889 0.04618915921528615 0.02141912739595271 0.02108458976105274 0.04702207435494673 0.039182825880169 0.04079686216244226 -0.04299847186680389 11.061690372118308 0.013531541006526572 0.017510565918009917 0.01624370576825897 -0.034059359307494944 0.01310116317859926 -0.030030490292370343 0.04570384125466309 -0.0039515733020577684 4.809019275002583 -0.007675982639213861 0.03775134902095213 -0.01460430096161674 -0.025174270294520774 -0.04081431117736805 0.031665378338543985 0.013891790215736104 -0.007857382815017164 -5.63226294999855 -0.009308274568750972 0.041720713261060575 -6.679362751330338 0.03847363065471794 0.01568243655304377 -6.697992505700672 -0.006297609398069193 -0.037433053855138405 0.021925524003987937 -0.0233933818443316 -0.013379765373308372 8.001145908154951 3.4813820676628384 -19.214920100303654 0.047804284570717996 10.398734542162758 0.009807545080010884 -5.600746839576717 -15.68156752589143 3.186837087376645 -0.034446981212992084 0.02334181031767339 0.03033601292037612 0.006399264070969455 4.739283092192384 -0.04150047084761143 12.441017518167273 -8.240125778977575 6.917998095364488 0.012189701529829884 46.372396488298676 -0.028102781704458717 -4.290110689809146 -14.77488628441101 -3.8451431394841413 0.018050328708795374 -0.018614687578379696 -0.0179147843710327 -0.012288528894346827 -10.76056047252863 -0.027466008785360048 
0.014696955985148497 -0.014271352659825896 0.0189194745431627 0.0009811362160333339 -0.027389568532125815 -0.0265185038792516 5.533284012906563 3.4589503652657188 -2.260325668802761 -0.7834777938172464 3.676223366020885 0.3427866395641631 -0.5354995871035103 -1.1102442991275436 0.8115918031270428 -0.5564447579045455 -0.29433415795277673 -0.22381652459570023 -0.3002382872913243 13.025230761922199 -1.0268901088723394 0.39371881238037437 -0.7298608076662167 -1.5831509479352976 0.8448807264563364 -17.44807354867019 -0.14935879702797544 -10.141274098128035 3.486725637870039 -18.032633746766273 83.86105549506426 8.402766791435342 2.4878291025009522 -4.167155201674508 7.509909809685505 44.329312067318185 17.724220412698504 -0.2636245840049791 -2.525440290142883 4.51279369442263 -0.11660647270645144 -1.5913281127990293 -0.02291722955509945 0.047934923540385824 -56.223337941100134 -0.04979451333506899 -0.0127596047365281 -56.24128219848431 -38.75361736665085 0.03648252640773416 0.04044709165741265 -0.01410893904492083 0.023761655703745884 -0.03054213351980282 0.014375635768037754 -0.04598782112182315 -0.04523108782423243 -36.65989672613827 -0.017789770965356735 -0.014799287814657554 -0.025779568247795228 0.010356160735715327 -0.019727367653474964 -0.04562783165181199 0.020117860482060785 0.025884221365491716 -19.772094412334315 -0.022896401607651846 -0.004811619196789218 0.013024981243586168 0.019687011165008567 -0.03784911336515665 0.026444085540995067 -0.012186447200387496 -0.005302355930787661 24.010828813022897 0.005954115999288084 -0.035190409312715505 28.86982024460163 0.022320535605434216 0.0180650200509398 28.842945285504996 0.011647477524818128 0.018043966974135506 10.87409200615871 2.547694035517274 15.45748727651137 -79.11844790443487 15.636129704715366 -16.709753863008416 0.5517906888305057 9.478129837675198 -50.73975922826483 -18.135716112255363 -0.31722305821729657 0.17686978026168754 -0.4933895283274213 0.04372804805599923 -8.104466504103119 -0.047240093679111965 -0.030834003322646214 44.576157088676744 0.022114388704482617 -0.034601549350703385 44.59437746995262 12.470383008819631 -0.008605466956915438 -0.02489926910133179 -0.016460092750695998 0.0155906565785817 -0.021768447092119933 -0.006561777875643504 0.042002310519739704 0.015434924765861804 11.115834878135804 -0.029672704787333685 0.04284167323359514 -0.0316140965826324 0.012478379390547517 0.03783226057998408 0.03715609783645846 -0.02591331575809523 -0.024664881004081426 4.775058208200896 -0.017307634289707188 -0.004800421743194007 -0.017560843066480793 -0.0017337791607251575 -0.022221856535973254 -0.03650017947689178 0.010366826251449149 -0.02445801801130202 -5.595972086902439 -0.00925876164145524 0.03249839835636715 -6.746325126243578 -0.019259496863535817 -0.04829581469283584 -6.717958372703944 -0.029737383673877432 0.023444482390240592 0.0499006947018403 0.030352493393013283 -0.04748036479489513 8.022921081705418 3.499012452142016 -19.22240965918114 0.004506810579079261 10.373419455234092 -0.008097242910988706 -5.571133381647917 -15.654397633334217 3.2230405916744673 0.02208310701999485 -0.025753023728034913 0.010239954504560347 -0.02200616651098513 4.700184754909376 -0.0431845094101134 12.447619458188813 -8.231014296350459 6.86275325236023 0.03560645135491617 46.42280364809955 0.04358684267461434 -4.330781337173737 -14.769295363469956 -3.8772642409537084 0.007212388147732109 -0.04697291756961895 0.008049604987572258 -0.020225100806843005 -10.745349932111896 -0.03450692539788979 
-0.016844153983256123 -0.02819612434061827 0.004614386229171825 0.004724598405121322 -0.0020093679545152314 0.04799612997437097 5.625653185648477 3.352174175393124 -2.226512201764314 -0.7549583580691515 3.6540958699378416 0.395813620168848 -0.515011616951198 -1.1826227293482627 0.6637190273732481 -0.5852784133693999 -0.40092730471046184 -0.24201065771502228 -0.48420426727804566 13.472160304983742 -0.9036850534839765 0.330676856808014 -0.5438440933699566 -1.1009190921951055 0.7081194424963582 -17.330542835868506 -0.1310761284449299 -10.200952854796766 3.5339530694229055 -18.06743330366311 83.80568883194482 7.9428122797815774 2.8671758966146164 -4.123149310553806 7.618216434963216 44.27871606751121 17.84816715278736 -0.24889531950038432 -2.348873303828656 4.527922878471159 -0.1727554859914989 -1.6347752701338392 0.00407132022167825 -0.0070206032995706455 -56.246627033054224 0.005083184207909679 0.03363787070049752 -56.201943092298436 -38.80650391335373 0.019005770428018244 0.008263031022528344 -0.03336666683414193 -0.04199756466827529 -0.028760590884029158 0.018125758400222295 0.029210238079625386 0.015063075026043916 -36.73188764811238 0.016042250288675366 -0.0126743512448256 0.012164567298104287 -0.005276357155382155 0.035657217238264816 -0.003567559715738876 0.005861478612344188 0.03837379937450872 -19.768313882301126 -0.014415548332592216 0.01712421957048723 0.03885725241102094 0.010445095647858702 -0.025963464583330893 -0.005561239729660381 0.019504586286922036 -0.04336041546283455 24.061458410766402 -0.011448357745714255 0.021525614639977243 28.81721754494998 -0.005696435381662792 0.04567445452598098 28.875176335909153 0.038649470894509576 -0.04634751732928351 11.690424279504745 2.6955818106025426 15.637326802068907 -79.67928203692306 12.962745185735278 -21.25627261403021 -0.8997723263959799 11.685207208260731 -56.32873826872868 -16.87129813660255 0.3148201917212729 -0.8040263361955249 -0.460766622065618 0.05911073522657292 -8.163144050042076 0.0031678582348662727 -0.04241104310980713 44.524186193839306 -0.005087833507577908 -0.04471729711103481 44.52136088437168 12.501859319555935 0.0024031077978324132 -0.0006849753545531444 -0.034267220524607296 0.0436989925466729 0.03558233555173695 -0.022226291972980424 -0.020575050354849838 0.01974135599242815 11.132682684303463 0.013763446350003546 0.04840351278157262 0.002315568876496036 -0.02301994884835704 0.0399941857894586 0.027131037911736735 -0.0012768501029362998 -0.03692606072275956 4.761141072619706 0.04367197250731596 -0.043982778943255904 -0.019456719000364556 0.0024878365155616483 -0.01503225884813706 0.039309053321050585 -0.03023373585493807 -0.049516647788581405 -5.5984847036842345 0.023373449832233856 0.01652386222649989 -6.6789282241389545 0.013512943082075611 -0.01670538479873119 -6.705027782020127 0.010138997384336126 -0.04268812652692355 0.04957520549748487 0.006083142889356658 0.007520983952424783 8.058912602360637 3.5188952286700697 -19.185232800007757 0.009807509284325245 10.369525238336431 0.023794343345580202 -5.653855990067756 -15.625549852288259 3.1974772707999732 -0.03678491463848353 0.028584433342944984 -0.02750046486396006 -0.009714883527696868 4.663896646252182 -0.010492096023240697 12.469694831730902 -8.282256334063431 6.906581945715248 -0.03850940472904766 46.38264994545256 -0.008259497734374002 -4.363076980261996 -14.762470670131242 -3.8320196585570176 0.001526977029361767 -0.044648791725008255 -0.0016164763981123674 -0.041736423192343185 -10.755679204963569 -0.036717998416344294 
0.00655672963964825 -0.0024248214981057743 -0.03539851848235828 -0.03338586637729507 -0.04370001465223599 -0.02971175387944049 5.620941099911986 3.2644803940890594 -2.274689934243118 -0.7512519090105816 3.7040420260811486 0.3434268159000178 -0.4940197587504488 -1.1815693880304912 0.49654821403433824 -0.6251143381942704 -0.34557934350029895 -0.27266348741722174 -0.5831483856961022 13.588764948858232 -0.7750854673551784 0.41342078954384903 -0.5823791971233645 -0.820492699091542 0.7013038532148445 -17.357205856782414 -0.12821823014061187 -10.201278120587117 3.5110130247837597 -17.99937870166213 83.77286915383807 7.877055344169172 2.821770159791148 -4.115708801943163 7.692447363790284 44.03594926812538 17.950154218694113 -0.2536294520236431 -2.260883128786256 4.566358685722031 -0.10992639004208077 -1.6366149743166871 0.0459473664861116 -0.0464491372893414 -56.220985624106625 -0.04321396832701332 -0.0348213364312232 -56.24463533177729 -38.79843377133948 -0.028467472639180546 0.0043770321347984765 0.023777240033165267 0.0013642181783014616 0.03280781670720286 -0.015985413451918836 -0.03463593294966232 0.042139512953217405 -36.710461951024 0.028860726607066442 0.0017867279518106887 -0.04498342338804677 0.003553621258562124 0.027835637292364466 -0.01437700310896358 0.0029545815847753327 0.039455624375798255 -19.785903336521137 0.007334274351775225 -0.029302477080895627 0.0411409580441781 -0.03912388440577922 0.032042046179104396 0.02703665513110363 0.01623215387416483 0.03814913634786916 24.076229281054363 -0.017365893621240164 0.03126262882018158 28.85470992268539 0.03126214549536216 0.037006231684484366 28.86678791322423 0.0010627951762417892 0.042847524478310285 12.25426105948625 2.7774140255535538 15.786719569343548 -79.82918903400866 11.00111423122052 -24.671198585208536 -1.6982555765404588 13.103343986944845 -60.46571600896533 -15.755129077496557 1.0687244961114615 -1.6824463359595567 -0.5032979439685504 0.07187087154728923 -8.123641453430906 -0.006987986007509485 0.0214780411858999 44.61340295770759 0.0011611605807850087 0.011620686590215616 44.53015470976492 12.486038154050105 0.02723809805309566 -0.00779096593662212 -0.004341803593738416 -0.039975526196775725 -0.038753097205267255 0.012115709266385376 0.03273268569000293 -0.018550164691204636 11.112630301153551 0.04646886840804332 -0.008536842285731176 -0.013465011938263686 0.02016352955710926 -0.033917391404589575 0.04486714095594943 0.011967830880478406 -0.005327750432870816 4.774423834981943 -0.019021081102503695 0.041328091680635344 -0.017438672367510906 -0.03465664034771671 0.007009408664343708 0.03554763332325274 -0.022397675100532297 0.008957875831061179 -5.560171140364622 -0.03271912832915162 -0.0486350736534082 -6.6807967698344894 -0.003633285648170665 0.011341757150127477 -6.70771610340848 0.047660770632059944 0.019227851483625283 -0.02608840216315325 0.005562893491288698 0.001106768194096406 8.031674653129619 3.5167914698108484 -19.194142599564334 0.009477701597891788 10.361470637252685 -0.012730062076461584 -5.649939118130037 -15.669054850811902 3.184296531699554 -0.04767155082308316 0.009364610852784788 0.0068185299815203436 0.019032936751460353 4.704616319675485 -0.024252975591644133 12.419128751604738 -8.23669917369992 6.891132753895276 -0.00024112862922704572 46.36282151496746 0.05115618025528242 -4.329915842473338 -14.735183592343947 -3.8286710591249022 0.003606431433291602 0.04702634011893135 -0.03265628734136375 0.03802758136406708 -10.784638425297416 -0.006155529619357466 
